<svg width="302" height="48" viewBox="0 0 302 48" fill="none" xmlns="http://www.w3.org/2000/svg">
<path d="M60.0048 18.432C60.0048 19.328 59.7888 20.168 59.3568 20.952C58.9408 21.736 58.2768 22.368 57.3648 22.848C56.4688 23.328 55.3328 23.568 53.9568 23.568H51.1488V30H47.7888V13.248H53.9568C55.2528 13.248 56.3568 13.472 57.2688 13.92C58.1808 14.368 58.8608 14.984 59.3088 15.768C59.7728 16.552 60.0048 17.44 60.0048 18.432ZM53.8128 20.856C54.7408 20.856 55.4288 20.648 55.8768 20.232C56.3248 19.8 56.5488 19.2 56.5488 18.432C56.5488 16.8 55.6368 15.984 53.8128 15.984H51.1488V20.856H53.8128ZM74.7504 23.064C74.7504 23.544 74.7184 23.976 74.6544 24.36H64.9344C65.0144 25.32 65.3504 26.072 65.9424 26.616C66.5344 27.16 67.2624 27.432 68.1264 27.432C69.3744 27.432 70.2624 26.896 70.7904 25.824H74.4144C74.0304 27.104 73.2944 28.16 72.2064 28.992C71.1184 29.808 69.7824 30.216 68.1984 30.216C66.9184 30.216 65.7664 29.936 64.7424 29.376C63.7344 28.8 62.9424 27.992 62.3664 26.952C61.8064 25.912 61.5264 24.712 61.5264 23.352C61.5264 21.976 61.8064 20.768 62.3664 19.728C62.9264 18.688 63.7104 17.888 64.7184 17.328C65.7264 16.768 66.8864 16.488 68.1984 16.488C69.4624 16.488 70.5904 16.76 71.5824 17.304C72.5904 17.848 73.3664 18.624 73.9104 19.632C74.4704 20.624 74.7504 21.768 74.7504 23.064ZM71.2704 22.104C71.2544 21.24 70.9424 20.552 70.3344 20.04C69.7264 19.512 68.9824 19.248 68.1024 19.248C67.2704 19.248 66.5664 19.504 65.9904 20.016C65.4304 20.512 65.0864 21.208 64.9584 22.104H71.2704ZM80.5629 18.768C80.9949 18.064 81.5549 17.512 82.2429 17.112C82.9469 16.712 83.7469 16.512 84.6429 16.512V20.04H83.7549C82.6989 20.04 81.8989 20.288 81.3549 20.784C80.8269 21.28 80.5629 22.144 80.5629 23.376V30H77.2029V16.704H80.5629V18.768ZM91.994 30.216C90.906 30.216 89.93 30.024 89.066 29.64C88.202 29.24 87.514 28.704 87.002 28.032C86.506 27.36 86.234 26.616 86.186 25.8H89.57C89.634 26.312 89.882 26.736 90.314 27.072C90.762 27.408 91.314 27.576 91.97 27.576C92.61 27.576 93.106 27.448 93.458 27.192C93.826 26.936 94.01 26.608 94.01 26.208C94.01 25.776 93.786 25.456 93.338 25.248C92.906 25.024 92.21 24.784 91.25 24.528C90.258 24.288 89.442 24.04 88.802 23.784C88.178 23.528 87.634 23.136 87.17 22.608C86.722 22.08 86.498 21.368 86.498 20.472C86.498 19.736 86.706 19.064 87.122 18.456C87.554 17.848 88.162 17.368 88.946 17.016C89.746 16.664 90.682 16.488 91.754 16.488C93.338 16.488 94.602 16.888 95.546 17.688C96.49 18.472 97.01 19.536 97.106 20.88H93.89C93.842 20.352 93.618 19.936 93.218 19.632C92.834 19.312 92.314 19.152 91.658 19.152C91.05 19.152 90.578 19.264 90.242 19.488C89.922 19.712 89.762 20.024 89.762 20.424C89.762 20.872 89.986 21.216 90.434 21.456C90.882 21.68 91.578 21.912 92.522 22.152C93.482 22.392 94.274 22.64 94.898 22.896C95.522 23.152 96.058 23.552 96.506 24.096C96.97 24.624 97.21 25.328 97.226 26.208C97.226 26.976 97.01 27.664 96.578 28.272C96.162 28.88 95.554 29.36 94.754 29.712C93.97 30.048 93.05 30.216 91.994 30.216ZM105.888 30.216C104.608 30.216 103.456 29.936 102.432 29.376C101.408 28.8 100.6 27.992 100.008 26.952C99.4321 25.912 99.1441 24.712 99.1441 23.352C99.1441 21.992 99.4401 20.792 100.032 19.752C100.64 18.712 101.464 17.912 102.504 17.352C103.544 16.776 104.704 16.488 105.984 16.488C107.264 16.488 108.424 16.776 109.464 17.352C110.504 17.912 111.32 18.712 111.912 19.752C112.52 20.792 112.824 21.992 112.824 23.352C112.824 24.712 112.512 25.912 111.888 26.952C111.28 27.992 110.448 28.8 109.392 29.376C108.352 29.936 107.184 30.216 105.888 30.216ZM105.888 27.288C106.496 27.288 107.064 27.144 107.592 26.856C108.136 26.552 108.568 26.104 108.888 25.512C109.208 24.92 109.368 24.2 109.368 23.352C109.368 22.088 109.032 21.12 108.36 20.448C107.704 19.76 106.896 19.416 105.936 19.416C104.976 19.416 104.168 19.76 103.512 20.448C102.872 21.12 102.552 22.088 102.552 23.352C102.552 24.616 102.864 25.592 103.488 26.28C104.128 26.952 104.928 27.288 105.888 27.288ZM122.657 16.512C124.241 16.512 125.521 17.016 126.497 18.024C127.473 19.016 127.961 20.408 127.961 22.2V30H124.601V22.656C124.601 21.6 124.337 20.792 123.809 20.232C123.281 19.656 122.561 19.368 121.649 19.368C120.721 19.368 119.985 19.656 119.441 20.232C118.913 20.792 118.649 21.6 118.649 22.656V30H115.289V16.704H118.649V18.36C119.097 17.784 119.665 17.336 120.353 17.016C121.057 16.68 121.825 16.512 122.657 16.512ZM130.292 23.304C130.292 21.96 130.556 20.768 131.084 19.728C131.628 18.688 132.356 17.888 133.268 17.328C134.196 16.768 135.228 16.488 136.364 16.488C137.356 16.488 138.22 16.688 138.956 17.088C139.708 17.488 140.308 17.992 140.756 18.6V16.704H144.14V30H140.756V28.056C140.324 28.68 139.724 29.2 138.956 29.616C138.204 30.016 137.332 30.216 136.34 30.216C135.22 30.216 134.196 29.928 133.268 29.352C132.356 28.776 131.628 27.968 131.084 26.928C130.556 25.872 130.292 24.664 130.292 23.304ZM140.756 23.352C140.756 22.536 140.596 21.84 140.276 21.264C139.956 20.672 139.524 20.224 138.98 19.92C138.436 19.6 137.852 19.44 137.228 19.44C136.604 19.44 136.028 19.592 135.5 19.896C134.972 20.2 134.54 20.648 134.204 21.24C133.884 21.816 133.724 22.504 133.724 23.304C133.724 24.104 133.884 24.808 134.204 25.416C134.54 26.008 134.972 26.464 135.5 26.784C136.044 27.104 136.62 27.264 137.228 27.264C137.852 27.264 138.436 27.112 138.98 26.808C139.524 26.488 139.956 26.04 140.276 25.464C140.596 24.872 140.756 24.168 140.756 23.352ZM150.782 12.24V30H147.422V12.24H150.782ZM170.092 26.808H163.42L162.316 30H158.788L164.812 13.224H168.724L174.748 30H171.196L170.092 26.808ZM169.18 24.12L166.756 17.112L164.332 24.12H169.18ZM176.136 23.352C176.136 21.976 176.416 20.776 176.976 19.752C177.536 18.712 178.312 17.912 179.304 17.352C180.296 16.776 181.432 16.488 182.712 16.488C184.36 16.488 185.72 16.904 186.792 17.736C187.88 18.552 188.608 19.704 188.976 21.192H185.352C185.16 20.616 184.832 20.168 184.368 19.848C183.92 19.512 183.36 19.344 182.688 19.344C181.728 19.344 180.968 19.696 180.408 20.4C179.848 21.088 179.568 22.072 179.568 23.352C179.568 24.616 179.848 25.6 180.408 26.304C180.968 26.992 181.728 27.336 182.688 27.336C184.048 27.336 184.936 26.728 185.352 25.512H188.976C188.608 26.952 187.88 28.096 186.792 28.944C185.704 29.792 184.344 30.216 182.712 30.216C181.432 30.216 180.296 29.936 179.304 29.376C178.312 28.8 177.536 28 176.976 26.976C176.416 25.936 176.136 24.728 176.136 23.352ZM190.573 23.352C190.573 21.976 190.853 20.776 191.413 19.752C191.973 18.712 192.749 17.912 193.741 17.352C194.733 16.776 195.869 16.488 197.149 16.488C198.797 16.488 200.157 16.904 201.229 17.736C202.317 18.552 203.045 19.704 203.413 21.192H199.789C199.597 20.616 199.269 20.168 198.805 19.848C198.357 19.512 197.797 19.344 197.125 19.344C196.165 19.344 195.405 19.696 194.845 20.4C194.285 21.088 194.005 22.072 194.005 23.352C194.005 24.616 194.285 25.6 194.845 26.304C195.405 26.992 196.165 27.336 197.125 27.336C198.485 27.336 199.373 26.728 199.789 25.512H203.413C203.045 26.952 202.317 28.096 201.229 28.944C200.141 29.792 198.781 30.216 197.149 30.216C195.869 30.216 194.733 29.936 193.741 29.376C192.749 28.8 191.973 28 191.413 26.976C190.853 25.936 190.573 24.728 190.573 23.352ZM211.779 30.216C210.499 30.216 209.347 29.936 208.323 29.376C207.299 28.8 206.491 27.992 205.899 26.952C205.323 25.912 205.035 24.712 205.035 23.352C205.035 21.992 205.331 20.792 205.923 19.752C206.531 18.712 207.355 17.912 208.395 17.352C209.435 16.776 210.595 16.488 211.875 16.488C213.155 16.488 214.315 16.776 215.355 17.352C216.395 17.912 217.211 18.712 217.803 19.752C218.411 20.792 218.715 21.992 218.715 23.352C218.715 24.712 218.403 25.912 217.779 26.952C217.171 27.992 216.339 28.8 215.283 29.376C214.243 29.936 213.075 30.216 211.779 30.216ZM211.779 27.288C212.387 27.288 212.955 27.144 213.483 26.856C214.027 26.552 214.459 26.104 214.779 25.512C215.099 24.92 215.259 24.2 215.259 23.352C215.259 22.088 214.923 21.12 214.251 20.448C213.595 19.76 212.787 19.416 211.827 19.416C210.867 19.416 210.059 19.76 209.403 20.448C208.763 21.12 208.443 22.088 208.443 23.352C208.443 24.616 208.755 25.592 209.379 26.28C210.019 26.952 210.819 27.288 211.779 27.288ZM233.731 16.704V30H230.347V28.32C229.915 28.896 229.347 29.352 228.643 29.688C227.955 30.008 227.203 30.168 226.387 30.168C225.347 30.168 224.427 29.952 223.627 29.52C222.827 29.072 222.195 28.424 221.731 27.576C221.283 26.712 221.059 25.688 221.059 24.504V16.704H224.419V24.024C224.419 25.08 224.683 25.896 225.211 26.472C225.739 27.032 226.459 27.312 227.371 27.312C228.299 27.312 229.027 27.032 229.555 26.472C230.083 25.896 230.347 25.08 230.347 24.024V16.704H233.731ZM244.415 16.512C245.999 16.512 247.279 17.016 248.255 18.024C249.231 19.016 249.719 20.408 249.719 22.2V30H246.359V22.656C246.359 21.6 246.095 20.792 245.567 20.232C245.039 19.656 244.319 19.368 243.407 19.368C242.479 19.368 241.743 19.656 241.199 20.232C240.671 20.792 240.407 21.6 240.407 22.656V30H237.047V16.704H240.407V18.36C240.855 17.784 241.423 17.336 242.111 17.016C242.815 16.68 243.583 16.512 244.415 16.512ZM256.826 19.464V25.896C256.826 26.344 256.93 26.672 257.138 26.88C257.362 27.072 257.73 27.168 258.242 27.168H259.802V30H257.69C254.858 30 253.442 28.624 253.442 25.872V19.464H251.858V16.704H253.442V13.416H256.826V16.704H259.802V19.464H256.826ZM261.354 23.304C261.354 21.96 261.618 20.768 262.146 19.728C262.691 18.688 263.419 17.888 264.331 17.328C265.259 16.768 266.291 16.488 267.427 16.488C268.419 16.488 269.283 16.688 270.019 17.088C270.771 17.488 271.371 17.992 271.819 18.6V16.704H275.203V30H271.819V28.056C271.387 28.68 270.787 29.2 270.019 29.616C269.267 30.016 268.395 30.216 267.403 30.216C266.283 30.216 265.259 29.928 264.331 29.352C263.419 28.776 262.691 27.968 262.146 26.928C261.618 25.872 261.354 24.664 261.354 23.304ZM271.819 23.352C271.819 22.536 271.659 21.84 271.339 21.264C271.019 20.672 270.587 20.224 270.043 19.92C269.499 19.6 268.915 19.44 268.291 19.44C267.667 19.44 267.091 19.592 266.562 19.896C266.035 20.2 265.603 20.648 265.267 21.24C264.947 21.816 264.787 22.504 264.787 23.304C264.787 24.104 264.947 24.808 265.267 25.416C265.603 26.008 266.035 26.464 266.562 26.784C267.107 27.104 267.683 27.264 268.291 27.264C268.915 27.264 269.499 27.112 270.043 26.808C270.587 26.488 271.019 26.04 271.339 25.464C271.659 24.872 271.819 24.168 271.819 23.352ZM285.852 16.512C287.436 16.512 288.716 17.016 289.692 18.024C290.668 19.016 291.156 20.408 291.156 22.2V30H287.796V22.656C287.796 21.6 287.532 20.792 287.004 20.232C286.476 19.656 285.756 19.368 284.844 19.368C283.916 19.368 283.18 19.656 282.636 20.232C282.108 20.792 281.844 21.6 281.844 22.656V30H278.484V16.704H281.844V18.36C282.292 17.784 282.86 17.336 283.548 17.016C284.252 16.68 285.02 16.512 285.852 16.512ZM298.263 19.464V25.896C298.263 26.344 298.367 26.672 298.575 26.88C298.799 27.072 299.167 27.168 299.679 27.168H301.239V30H299.127C296.295 30 294.879 28.624 294.879 25.872V19.464H293.295V16.704H294.879V13.416H298.263V16.704H301.239V19.464H298.263Z" fill="white"/>
<path d="M34.1422 5.85781C30.3647 2.08031 25.3422 0 20 0C14.6578 0 9.63531 2.08031 5.85781 5.85781C2.08031 9.63531 0 14.6578 0 20C0 25.3422 2.08039 30.3646 5.85781 34.1422C9.63523 37.9198 14.6578 40 20 40C25.3422 40 30.3647 37.9197 34.1422 34.1422C37.9197 30.3647 40 25.3422 40 20C40 14.6578 37.9196 9.63539 34.1422 5.85781Z" fill="#33CC95"/>
<g clip-path="url(#clip0)">
<path d="M20.5714 8V33.1429" stroke="white" stroke-width="2" stroke-linecap="round" stroke-linejoin="round"/>
<path d="M26.2857 12.5714H17.7143C16.6534 12.5714 15.636 12.9929 14.8859 13.743C14.1357 14.4931 13.7143 15.5106 13.7143 16.5714C13.7143 17.6323 14.1357 18.6497 14.8859 19.3999C15.636 20.15 16.6534 20.5714 17.7143 20.5714H23.4286C24.4894 20.5714 25.5069 20.9929 26.257 21.743C27.0072 22.4932 27.4286 23.5106 27.4286 24.5714C27.4286 25.6323 27.0072 26.6497 26.257 27.3999C25.5069 28.15 24.4894 28.5714 23.4286 28.5714H13.7143" stroke="white" stroke-width="2" stroke-linecap="round" stroke-linejoin="round"/>
</g>
<defs>
<clipPath id="clip0">
<rect width="27.4286" height="27.4286" fill="white" transform="translate(6.85715 6.85714)"/>
</clipPath>
</defs>
</svg>
